<svg width="1920" height="440" viewBox="0 0 1920 440" fill="none" xmlns="http://www.w3.org/2000/svg">
<mask id="path-1-outside-1_3_20" maskUnits="userSpaceOnUse" x="-22" y="0" width="1964" height="462" fill="black">
<rect fill="white" x="-22" width="1964" height="462"/>
<path fill-rule="evenodd" clip-rule="evenodd" d="M227.262 46.5234C232.545 46.5234 237.699 45.9718 242.67 44.9229C253.549 72.4263 280.378 91.8809 311.751 91.8809C327.174 91.8809 341.498 87.1795 353.37 79.1318C366.979 96.1207 387.899 107 411.36 107C437.15 107 459.87 93.8526 473.183 73.8942C486.189 85.1036 503.123 91.8809 521.64 91.8809C553.292 91.8809 580.319 72.0791 591.008 44.1881C600.927 49.0992 612.099 51.8596 623.917 51.8596C648.282 51.8596 669.907 40.1254 683.448 22H1920V440H0V22H172.117C185.707 37.0588 205.379 46.5234 227.262 46.5234Z"/>
</mask>
<path fill-rule="evenodd" clip-rule="evenodd" d="M227.262 46.5234C232.545 46.5234 237.699 45.9718 242.67 44.9229C253.549 72.4263 280.378 91.8809 311.751 91.8809C327.174 91.8809 341.498 87.1795 353.37 79.1318C366.979 96.1207 387.899 107 411.36 107C437.15 107 459.87 93.8526 473.183 73.8942C486.189 85.1036 503.123 91.8809 521.64 91.8809C553.292 91.8809 580.319 72.0791 591.008 44.1881C600.927 49.0992 612.099 51.8596 623.917 51.8596C648.282 51.8596 669.907 40.1254 683.448 22H1920V440H0V22H172.117C185.707 37.0588 205.379 46.5234 227.262 46.5234Z" fill="#1F1552"/>
<path d="M242.67 44.9229L263.127 36.8306C259.182 26.8578 248.621 21.1827 238.128 23.3969L242.67 44.9229ZM353.37 79.1318L370.54 65.3774C363.368 56.4243 350.52 54.4848 341.025 60.9217L353.37 79.1318ZM473.183 73.8942L487.546 57.2295C482.77 53.113 476.457 51.2438 470.209 52.0962C463.962 52.9486 458.38 56.4407 454.881 61.6863L473.183 73.8942ZM591.008 44.1881L600.77 24.4726C595.22 21.7245 588.769 21.4429 583.001 23.697C577.232 25.9511 572.681 30.532 570.465 36.3149L591.008 44.1881ZM683.448 22V0C676.509 0 669.976 3.27388 665.823 8.83301L683.448 22ZM1920 22H1942C1942 9.84974 1932.15 0 1920 0V22ZM1920 440V462C1932.15 462 1942 452.15 1942 440H1920ZM0 440H-22C-22 452.15 -12.1503 462 0 462L0 440ZM0 22V0C-12.1503 0 -22 9.84974 -22 22L0 22ZM172.117 22L188.448 7.26002C184.277 2.63805 178.343 0 172.117 0V22ZM238.128 23.3969C234.641 24.1325 231.009 24.5234 227.262 24.5234V68.5234C234.08 68.5234 240.756 67.811 247.212 66.4489L238.128 23.3969ZM311.751 69.8809C289.707 69.8809 270.799 56.2248 263.127 36.8306L222.212 53.0153C236.299 88.6277 271.049 113.881 311.751 113.881V69.8809ZM341.025 60.9217C332.681 66.5777 322.635 69.8809 311.751 69.8809V113.881C331.712 113.881 350.315 107.781 365.714 97.3419L341.025 60.9217ZM411.36 85C394.859 85 380.153 77.3783 370.54 65.3774L336.199 92.8862C353.804 114.863 380.938 129 411.36 129V85ZM454.881 61.6863C445.475 75.7875 429.489 85 411.36 85V129C444.812 129 474.266 111.918 491.485 86.1022L454.881 61.6863ZM521.64 69.8809C508.592 69.8809 496.71 65.1276 487.546 57.2295L458.821 90.559C475.669 105.08 497.654 113.881 521.64 113.881V69.8809ZM570.465 36.3149C562.929 55.9795 543.881 69.8809 521.64 69.8809V113.881C562.704 113.881 597.709 88.1786 611.551 52.0612L570.465 36.3149ZM623.917 29.8596C615.561 29.8596 607.722 27.9145 600.77 24.4726L581.246 63.9036C594.132 70.2839 608.638 73.8596 623.917 73.8596V29.8596ZM665.823 8.83301C656.256 21.6388 641.049 29.8596 623.917 29.8596V73.8596C655.515 73.8596 683.557 58.6121 701.073 35.167L665.823 8.83301ZM683.448 44H1920V0H683.448V44ZM1898 22V440H1942V22H1898ZM1920 418H0V462H1920V418ZM22 440V22H-22V440H22ZM0 44H172.117V0H0V44ZM227.262 24.5234C211.863 24.5234 198.044 17.892 188.448 7.26002L155.785 36.74C173.371 56.2257 198.895 68.5234 227.262 68.5234V24.5234Z" fill="white" mask="url(#path-1-outside-1_3_20)"/>
</svg>
